<?xml version="1.0" ?><svg enable-background="new 0 0 512 512" id="Layer_1" version="1.1" viewBox="0 0 512 512" xml:space="preserve" xmlns="http://www.w3.org/2000/svg" xmlns:xlink="http://www.w3.org/1999/xlink"><g><g><linearGradient gradientUnits="userSpaceOnUse" id="SVGID_1_" x1="-0.0000027" x2="512" y1="256" y2="256"><stop offset="0" style="stop-color:#A364AB"/><stop offset="1" style="stop-color:#8C3D96"/></linearGradient><circle cx="256" cy="256" fill="url(#SVGID_1_)" r="256"/><linearGradient gradientUnits="userSpaceOnUse" id="SVGID_2_" x1="42.6666641" x2="469.3333435" y1="256.0005188" y2="256.0005188"><stop offset="0" style="stop-color:#8C3D96"/><stop offset="1" style="stop-color:#A364AB"/></linearGradient><path d="M256,469.3338623c-117.6315155,0-213.3333435-95.7023926-213.3333435-213.3333435    c0-117.6314545,95.7018204-213.333313,213.3333435-213.333313c117.6356812,0,213.3333435,95.7018661,213.3333435,213.333313    C469.3333435,373.6314697,373.6356812,469.3338623,256,469.3338623z" fill="url(#SVGID_2_)"/></g><g><polygon opacity="0.3" points="242.9060822,239.2645264 260.8191528,165.811203 181.7876892,272.2442627 248.8948822,272.2442627     221.2250214,362.1888123 314.2714233,239.2645264   "/><path d="M161.9093323,282.2437439l62.1343536-83.6826782h-70.0389252    c-5.5226746,0-9.9994354,4.4773407-9.9994354,9.9994659v110.8773346c0,5.5231934,4.4767609,10,9.9994354,10h66.8351898    l14.5184021-47.1941223H161.9093323z" opacity="0.3"/><path d="M356.7279663,231.6698608v-23.1093292c0-5.5221252-4.4768066-9.9994659-9.9994812-9.9994659h-83.6042786    l-7.4863892,30.706665h78.741333l-75.8202515,100.1701355h88.1695862c5.5226746,0,9.9994812-4.4768066,9.9994812-10v-23.1093445    h27.2666931v-64.6586609H356.7279663z" opacity="0.3"/></g><g><polygon fill="#FFFFFF" points="234.9060822,231.2645264 252.8191528,157.811203 173.7876892,264.2442627     240.8948822,264.2442627 213.2250214,354.1888123 306.2714233,231.2645264   "/><path d="M153.9093323,274.2437439l62.1343536-83.6826782h-70.0389252    c-5.5226746,0-9.9994354,4.4773407-9.9994354,9.9994659v110.8773346c0,5.5231934,4.4767609,10,9.9994354,10h66.8351898    l14.5184021-47.1941223H153.9093323z" fill="#FFFFFF"/><path d="M348.7279663,223.6698608v-23.1093292c0-5.5221252-4.4768066-9.9994659-9.9994812-9.9994659h-83.6042633    l-7.4864044,30.706665h78.741333l-75.8202667,100.1701355h88.1696014c5.5226746,0,9.9994812-4.4768066,9.9994812-10v-23.1093445    h27.2666931v-64.6586609H348.7279663z" fill="#FFFFFF"/></g></g></svg>