<?xml version="1.0" encoding="utf-8"?>
<!-- Generator: Adobe Illustrator 23.0.1, SVG Export Plug-In . SVG Version: 6.00 Build 0)  -->
<svg version="1.1" id="Capa_1" xmlns="http://www.w3.org/2000/svg" xmlns:xlink="http://www.w3.org/1999/xlink" x="0px" y="0px"
	 viewBox="0 0 283.46 283.46" style="enable-background:new 0 0 283.46 283.46;" xml:space="preserve">
<style type="text/css">
	.st0{fill:#A8CCBA;}
	.st1{fill:#FFFFFF;}
</style>
<path class="st0" d="M141.73,283.46L141.73,283.46C63.46,283.46,0,220.01,0,141.73v0C0,63.46,63.46,0,141.73,0h0
	c78.28,0,141.73,63.46,141.73,141.73v0C283.46,220.01,220.01,283.46,141.73,283.46z"/>
<g>
	<path class="st1" d="M130.29,184.01c-1.81,0-2.61-0.8-2.61-2.41c0-45.99,46.59-46.79,46.59-75.11c0-15.66-12.25-26.31-32.93-26.31
		c-22.89,0-32.53,12.85-32.73,29.12c0,1.61-1,2.41-2.41,2.41H93.53c-1.61,0-2.61-0.8-2.61-2.41c0-22.49,13.66-45.19,50.41-45.19
		c33.14,0,51.21,18.27,51.21,40.97c0,41.17-45.79,38.76-45.79,76.51c0,1.61-1,2.41-2.61,2.41H130.29z M137.31,219.35
		c-5.82,0-10.64-4.62-10.64-10.64c0-6.02,4.82-10.64,10.64-10.64c6.03,0,10.64,4.62,10.64,10.64
		C147.96,214.73,143.34,219.35,137.31,219.35z"/>
</g>
</svg>
